<?xml version="1.0" encoding="utf-8"?>
<svg viewBox="0 0 500 500" width="500px" height="500px" xmlns="http://www.w3.org/2000/svg" xmlns:bx="https://boxy-svg.com"><defs><bx:export><bx:file format="svg"/></bx:export></defs><path class="st0" d="M 285.247 184.621 C 287.306 195.275 276.497 201.134 283.188 209.657 C 308.925 188.882 360.398 194.742 400.033 188.35 C 404.666 188.882 396.945 193.677 396.945 196.34 C 392.312 195.807 392.827 197.938 389.224 196.34 C 375.326 211.788 345.471 209.657 327.97 221.376 C 310.469 217.647 295.027 224.039 280.1 225.637 C 256.937 246.945 223.479 257.066 214.728 292.223 C 201.345 289.559 212.669 276.242 215.758 270.915 C 206.493 274.111 193.624 277.308 185.388 267.719 C 184.359 257.066 192.595 256 196.198 250.673 C 202.375 254.935 209.581 251.206 212.669 246.412 C 211.125 241.618 209.581 237.356 210.61 230.432 C 189.506 197.405 151.931 181.425 125.164 153.725 C 113.325 150.529 106.634 141.474 96.854 135.614 C 95.824 130.287 98.913 129.222 99.942 126.559 C 95.31 122.297 91.707 132.418 87.074 127.624 C 86.559 123.362 92.221 125.493 92.736 121.764 C 81.927 115.372 71.632 108.447 65.455 96.728 C 66.484 96.196 66.999 95.663 68.543 95.663 C 94.28 106.849 117.443 121.232 146.268 129.755 C 153.475 135.081 162.74 139.343 173.549 140.941 C 204.948 154.791 221.42 184.088 248.701 202.199 C 265.172 200.601 263.628 180.892 285.247 184.621 Z" style="clip-rule: evenodd; fill-rule: evenodd; fill: rgb(255, 255, 255);"/></svg>