<?xml version="1.0" encoding="utf-8"?>
<svg viewBox="0 0 500 500" width="500px" height="500px" xmlns="http://www.w3.org/2000/svg" xmlns:bx="https://boxy-svg.com"><defs><bx:export><bx:file format="svg"/></bx:export></defs><path class="st0" d="M 320.478 219.407 C 323.371 234.376 308.183 242.609 317.585 254.584 C 353.747 225.394 426.072 233.627 481.763 224.647 C 488.273 225.394 477.425 232.131 477.425 235.873 C 470.915 235.124 471.639 238.118 466.575 235.873 C 447.047 257.579 405.099 254.584 380.508 271.051 C 355.917 265.811 334.22 274.793 313.246 277.038 C 280.699 306.978 233.689 321.199 221.392 370.598 C 202.587 366.854 218.499 348.143 222.839 340.658 C 209.821 345.149 191.739 349.641 180.166 336.167 C 178.721 321.199 190.293 319.701 195.355 312.216 C 204.035 318.204 214.159 312.965 218.499 306.229 C 216.329 299.493 214.159 293.504 215.606 283.776 C 185.953 237.37 133.156 214.916 95.546 175.994 C 78.911 171.504 69.509 158.781 55.767 150.548 C 54.32 143.062 58.661 141.566 60.107 137.824 C 53.598 131.835 48.536 146.057 42.025 139.32 C 41.302 133.332 49.258 136.326 49.981 131.087 C 34.794 122.105 20.329 112.374 11.649 95.908 C 13.095 95.161 13.819 94.412 15.988 94.412 C 52.151 110.13 84.697 130.339 125.199 142.314 C 135.325 149.798 148.343 155.787 163.532 158.032 C 207.65 177.493 230.795 218.657 269.127 244.105 C 292.271 241.86 290.101 214.166 320.478 219.407 Z" style="clip-rule: evenodd; fill-rule: evenodd; fill: rgb(255, 255, 255);"/></svg>